# Blender v2.80 (sub 47) OBJ File: ''
# www.blender.org
mtllib 1.mtl
o Cube
v 1.000000 1.000000 -1.000000
v 1.000000 -1.000000 -1.000000
v 3.001811 -1.656240 -3.448904
v 0.147216 -3.247204 4.445202
v -1.000000 -1.000000 -1.000000
v -1.115711 -2.321778 -6.429253
v -1.000000 -1.000000 1.000000
v -3.987011 -1.521736 -5.540284
v -5.705188 -1.288260 -8.290390
v -2.774415 0.987402 -6.965694
v -3.963702 3.291008 4.359557
v 7.890938 2.591320 5.556593
v -3.078991 4.378534 2.311767
v 0.862580 -6.851316 -1.373075
v 6.850237 -0.911888 -3.743947
v 14.534891 -4.843491 -6.018517
v -5.807096 -1.264550 4.172279
vt 0.000000 0.000000
vt 0.000000 0.000000
vt 0.000000 0.000000
vt 0.000000 0.000000
vt 0.000000 0.000000
vt 0.000000 0.000000
vt 0.000000 0.000000
vt 0.000000 0.000000
vt 0.000000 0.000000
vt 0.000000 0.000000
vt 0.000000 0.000000
vt 0.000000 0.000000
vt 0.000000 0.000000
vt 0.000000 0.000000
vt 0.000000 0.000000
vt 0.000000 0.000000
vt 0.000000 0.000000
vn -0.7742 0.0000 -0.6329
vn 0.0000 -1.0000 0.0000
vn 0.0000 0.0000 -1.0000
vn -0.6662 -0.6468 -0.3713
vn -0.2354 0.9657 0.1095
vn 0.2469 0.9663 -0.0722
vn 0.6645 -0.5852 -0.4648
vn -0.0770 -0.9786 0.1910
vn 0.0046 0.8824 0.4706
vn 0.3128 0.0630 0.9477
vn 0.2035 -0.9235 0.3251
vn 0.7607 -0.6333 -0.1422
vn 0.2974 0.8276 -0.4761
usemtl Material
s off
f 2/1/1 1/2/1 3/3/1
f 5/4/2 2/1/2 7/5/2
f 2/1/3 5/4/3 1/2/3
f 4/6/4 2/1/4 3/3/4
f 4/6/5 3/3/5 6/7/5
f 8/8/6 6/7/6 9/9/6
f 9/9/7 10/10/7 8/8/7
f 11/11/8 10/10/8 12/12/8
f 12/12/9 13/13/9 11/11/9
f 15/14/10 14/15/10 16/16/10
f 15/14/11 12/12/11 3/3/11
f 4/6/12 6/7/12 2/1/12
f 4/6/13 14/15/13 17/17/13
l 13 14
