# Blender v2.80 (sub 47) OBJ File: ''
# www.blender.org
mtllib 10.mtl
o Icosphere_Icosphere.001
v 0.282165 0.076613 -0.126451
v 0.075928 0.155133 0.373545
v -0.044834 0.807988 -0.151380
v -0.656573 -0.488666 0.796583
v -0.441064 -0.112370 0.041690
v 0.250418 -0.356812 -0.496968
vt 0.000000 0.000000
vt 0.727272 0.314921
vt 0.681818 0.393651
vt 0.000000 0.000000
vt 0.636363 0.314921
vt 0.000000 0.000000
vn -0.6334 0.4103 0.6561
vn 0.8215 -0.4041 0.4023
vn -0.5615 0.7934 0.2352
vn 0.7217 -0.5237 0.4526
vn 0.8097 0.3459 -0.4740
vn 0.8683 0.3983 0.2956
usemtl None
s off
f 5/1/1 2/2/1 3/3/1
f 2/2/2 6/4/2 1/5/2
f 4/6/3 2/2/3 5/1/3
f 6/4/4 2/2/4 4/6/4
f 3/3/5 1/5/5 6/4/5
f 2/2/6 1/5/6 3/3/6
