# Blender v2.80 (sub 47) OBJ File: ''
# www.blender.org
mtllib 7.mtl
o Cube
v 1.000000 1.000000 -1.000000
v 1.000000 -1.000000 -1.000000
v 1.000000 1.000000 1.000000
v 1.000000 -1.000000 1.000000
v -1.000000 1.000000 -1.000000
v -1.000000 -1.000000 -1.000000
v -1.000000 1.000000 1.000000
v -1.000000 -1.000000 1.000000
v 4.600000 1.000000 -1.000000
v 4.600000 -1.000000 -1.000000
v 4.600000 1.000000 1.000000
v 4.600000 -1.000000 1.000000
v 2.600000 1.000000 -1.000000
v 2.600000 -1.000000 -1.000000
v 2.600000 1.000000 1.000000
v 2.600000 -1.000000 1.000000
v 8.200000 1.000000 -1.000000
v 8.200000 -1.000000 -1.000000
v 8.200000 1.000000 1.000000
v 8.200000 -1.000000 1.000000
v 6.200000 1.000000 -1.000000
v 6.200000 -1.000000 -1.000000
v 6.200000 1.000000 1.000000
v 6.200000 -1.000000 1.000000
v 11.799999 1.000000 -1.000000
v 11.799999 -1.000000 -1.000000
v 11.799999 1.000000 1.000000
v 11.799999 -1.000000 1.000000
v 9.799999 1.000000 -1.000000
v 9.799999 -1.000000 -1.000000
v 9.799999 1.000000 1.000000
v 9.799999 -1.000000 1.000000
v 15.400000 1.000000 -1.000000
v 15.400000 -1.000000 -1.000000
v 15.400000 1.000000 1.000000
v 15.400000 -1.000000 1.000000
v 13.400000 1.000000 -1.000000
v 13.400000 -1.000000 -1.000000
v 13.400000 1.000000 1.000000
v 13.400000 -1.000000 1.000000
v 19.000000 1.000000 -1.000000
v 19.000000 -1.000000 -1.000000
v 19.000000 1.000000 1.000000
v 19.000000 -1.000000 1.000000
v 17.000000 1.000000 -1.000000
v 17.000000 -1.000000 -1.000000
v 17.000000 1.000000 1.000000
v 17.000000 -1.000000 1.000000
v 1.000000 1.000000 -3.800000
v 1.000000 -1.000000 -3.800000
v 1.000000 1.000000 -1.800000
v 1.000000 -1.000000 -1.800000
v -1.000000 1.000000 -3.800000
v -1.000000 -1.000000 -3.800000
v -1.000000 1.000000 -1.800000
v -1.000000 -1.000000 -1.800000
v 4.600000 1.000000 -3.800000
v 4.600000 -1.000000 -3.800000
v 4.600000 1.000000 -1.800000
v 4.600000 -1.000000 -1.800000
v 2.600000 1.000000 -3.800000
v 2.600000 -1.000000 -3.800000
v 2.600000 1.000000 -1.800000
v 2.600000 -1.000000 -1.800000
v 8.200000 1.000000 -3.800000
v 8.200000 -1.000000 -3.800000
v 8.200000 1.000000 -1.800000
v 8.200000 -1.000000 -1.800000
v 6.200000 1.000000 -3.800000
v 6.200000 -1.000000 -3.800000
v 6.200000 1.000000 -1.800000
v 6.200000 -1.000000 -1.800000
v 11.799999 1.000000 -3.800000
v 11.799999 -1.000000 -3.800000
v 11.799999 1.000000 -1.800000
v 11.799999 -1.000000 -1.800000
v 9.799999 1.000000 -3.800000
v 9.799999 -1.000000 -3.800000
v 9.799999 1.000000 -1.800000
v 9.799999 -1.000000 -1.800000
v 15.400000 1.000000 -3.800000
v 15.400000 -1.000000 -3.800000
v 15.400000 1.000000 -1.800000
v 15.400000 -1.000000 -1.800000
v 13.400000 1.000000 -3.800000
v 13.400000 -1.000000 -3.800000
v 13.400000 1.000000 -1.800000
v 13.400000 -1.000000 -1.800000
v 19.000000 1.000000 -3.800000
v 19.000000 -1.000000 -3.800000
v 19.000000 1.000000 -1.800000
v 19.000000 -1.000000 -1.800000
v 17.000000 1.000000 -3.800000
v 17.000000 -1.000000 -3.800000
v 17.000000 1.000000 -1.800000
v 17.000000 -1.000000 -1.800000
v 1.000000 1.000000 -6.600000
v 1.000000 -1.000000 -6.600000
v 1.000000 1.000000 -4.600000
v 1.000000 -1.000000 -4.600000
v -1.000000 1.000000 -6.600000
v -1.000000 -1.000000 -6.600000
v -1.000000 1.000000 -4.600000
v -1.000000 -1.000000 -4.600000
v 4.600000 1.000000 -6.600000
v 4.600000 -1.000000 -6.600000
v 4.600000 1.000000 -4.600000
v 4.600000 -1.000000 -4.600000
v 2.600000 1.000000 -6.600000
v 2.600000 -1.000000 -6.600000
v 2.600000 1.000000 -4.600000
v 2.600000 -1.000000 -4.600000
v 8.200000 1.000000 -6.600000
v 8.200000 -1.000000 -6.600000
v 8.200000 1.000000 -4.600000
v 8.200000 -1.000000 -4.600000
v 6.200000 1.000000 -6.600000
v 6.200000 -1.000000 -6.600000
v 6.200000 1.000000 -4.600000
v 6.200000 -1.000000 -4.600000
v 11.799999 1.000000 -6.600000
v 11.799999 -1.000000 -6.600000
v 11.799999 1.000000 -4.600000
v 11.799999 -1.000000 -4.600000
v 9.799999 1.000000 -6.600000
v 9.799999 -1.000000 -6.600000
v 9.799999 1.000000 -4.600000
v 9.799999 -1.000000 -4.600000
v 15.400000 1.000000 -6.600000
v 15.400000 -1.000000 -6.600000
v 15.400000 1.000000 -4.600000
v 15.400000 -1.000000 -4.600000
v 13.400000 1.000000 -6.600000
v 13.400000 -1.000000 -6.600000
v 13.400000 1.000000 -4.600000
v 13.400000 -1.000000 -4.600000
v 19.000000 1.000000 -6.600000
v 19.000000 -1.000000 -6.600000
v 19.000000 1.000000 -4.600000
v 19.000000 -1.000000 -4.600000
v 17.000000 1.000000 -6.600000
v 17.000000 -1.000000 -6.600000
v 17.000000 1.000000 -4.600000
v 17.000000 -1.000000 -4.600000
v 1.000000 1.000000 -9.400000
v 1.000000 -1.000000 -9.400000
v 1.000000 1.000000 -7.400000
v 1.000000 -1.000000 -7.400000
v -1.000000 1.000000 -9.400000
v -1.000000 -1.000000 -9.400000
v -1.000000 1.000000 -7.400000
v -1.000000 -1.000000 -7.400000
v 4.600000 1.000000 -9.400000
v 4.600000 -1.000000 -9.400000
v 4.600000 1.000000 -7.400000
v 4.600000 -1.000000 -7.400000
v 2.600000 1.000000 -9.400000
v 2.600000 -1.000000 -9.400000
v 2.600000 1.000000 -7.400000
v 2.600000 -1.000000 -7.400000
v 8.200000 1.000000 -9.400000
v 8.200000 -1.000000 -9.400000
v 8.200000 1.000000 -7.400000
v 8.200000 -1.000000 -7.400000
v 6.200000 1.000000 -9.400000
v 6.200000 -1.000000 -9.400000
v 6.200000 1.000000 -7.400000
v 6.200000 -1.000000 -7.400000
v 11.799999 1.000000 -9.400000
v 11.799999 -1.000000 -9.400000
v 11.799999 1.000000 -7.400000
v 11.799999 -1.000000 -7.400000
v 9.799999 1.000000 -9.400000
v 9.799999 -1.000000 -9.400000
v 9.799999 1.000000 -7.400000
v 9.799999 -1.000000 -7.400000
v 15.400000 1.000000 -9.400000
v 15.400000 -1.000000 -9.400000
v 15.400000 1.000000 -7.400000
v 15.400000 -1.000000 -7.400000
v 13.400000 1.000000 -9.400000
v 13.400000 -1.000000 -9.400000
v 13.400000 1.000000 -7.400000
v 13.400000 -1.000000 -7.400000
v 19.000000 1.000000 -9.400000
v 19.000000 -1.000000 -9.400000
v 19.000000 1.000000 -7.400000
v 19.000000 -1.000000 -7.400000
v 17.000000 1.000000 -9.400000
v 17.000000 -1.000000 -9.400000
v 17.000000 1.000000 -7.400000
v 17.000000 -1.000000 -7.400000
v 1.000000 1.000000 -12.200000
v 1.000000 -1.000000 -12.200000
v 1.000000 1.000000 -10.200000
v 1.000000 -1.000000 -10.200000
v -1.000000 1.000000 -12.200000
v -1.000000 -1.000000 -12.200000
v -1.000000 1.000000 -10.200000
v -1.000000 -1.000000 -10.200000
v 4.600000 1.000000 -12.200000
v 4.600000 -1.000000 -12.200000
v 4.600000 1.000000 -10.200000
v 4.600000 -1.000000 -10.200000
v 2.600000 1.000000 -12.200000
v 2.600000 -1.000000 -12.200000
v 2.600000 1.000000 -10.200000
v 2.600000 -1.000000 -10.200000
v 8.200000 1.000000 -12.200000
v 8.200000 -1.000000 -12.200000
v 8.200000 1.000000 -10.200000
v 8.200000 -1.000000 -10.200000
v 6.200000 1.000000 -12.200000
v 6.200000 -1.000000 -12.200000
v 6.200000 1.000000 -10.200000
v 6.200000 -1.000000 -10.200000
v 11.799999 1.000000 -12.200000
v 11.799999 -1.000000 -12.200000
v 11.799999 1.000000 -10.200000
v 11.799999 -1.000000 -10.200000
v 9.799999 1.000000 -12.200000
v 9.799999 -1.000000 -12.200000
v 9.799999 1.000000 -10.200000
v 9.799999 -1.000000 -10.200000
v 15.400000 1.000000 -12.200000
v 15.400000 -1.000000 -12.200000
v 15.400000 1.000000 -10.200000
v 15.400000 -1.000000 -10.200000
v 13.400000 1.000000 -12.200000
v 13.400000 -1.000000 -12.200000
v 13.400000 1.000000 -10.200000
v 13.400000 -1.000000 -10.200000
v 19.000000 1.000000 -12.200000
v 19.000000 -1.000000 -12.200000
v 19.000000 1.000000 -10.200000
v 19.000000 -1.000000 -10.200000
v 17.000000 1.000000 -12.200000
v 17.000000 -1.000000 -12.200000
v 17.000000 1.000000 -10.200000
v 17.000000 -1.000000 -10.200000
vt 0.375000 0.250000
vt 0.625000 0.250000
vt 0.625000 0.500000
vt 0.375000 0.500000
vt 0.625000 0.750000
vt 0.375000 0.750000
vt 0.625000 0.750000
vt 0.625000 1.000000
vt 0.375000 1.000000
vt 0.625000 0.500000
vt 0.875000 0.500000
vt 0.875000 0.750000
vt 0.375000 0.250000
vt 0.625000 0.250000
vt 0.625000 0.500000
vt 0.375000 0.500000
vt 0.625000 0.750000
vt 0.375000 0.750000
vt 0.625000 0.750000
vt 0.625000 1.000000
vt 0.375000 1.000000
vt 0.625000 0.500000
vt 0.875000 0.500000
vt 0.875000 0.750000
vt 0.375000 0.250000
vt 0.625000 0.250000
vt 0.625000 0.500000
vt 0.375000 0.500000
vt 0.625000 0.750000
vt 0.375000 0.750000
vt 0.625000 0.750000
vt 0.625000 1.000000
vt 0.375000 1.000000
vt 0.625000 0.500000
vt 0.875000 0.500000
vt 0.875000 0.750000
vt 0.375000 0.250000
vt 0.625000 0.250000
vt 0.625000 0.500000
vt 0.375000 0.500000
vt 0.625000 0.750000
vt 0.375000 0.750000
vt 0.625000 0.750000
vt 0.625000 1.000000
vt 0.375000 1.000000
vt 0.625000 0.500000
vt 0.875000 0.500000
vt 0.875000 0.750000
vt 0.375000 0.250000
vt 0.625000 0.250000
vt 0.625000 0.500000
vt 0.375000 0.500000
vt 0.625000 0.750000
vt 0.375000 0.750000
vt 0.625000 0.750000
vt 0.625000 1.000000
vt 0.375000 1.000000
vt 0.625000 0.500000
vt 0.875000 0.500000
vt 0.875000 0.750000
vt 0.375000 0.250000
vt 0.625000 0.250000
vt 0.625000 0.500000
vt 0.375000 0.500000
vt 0.625000 0.750000
vt 0.375000 0.750000
vt 0.625000 0.750000
vt 0.625000 1.000000
vt 0.375000 1.000000
vt 0.625000 0.500000
vt 0.875000 0.500000
vt 0.875000 0.750000
vt 0.375000 0.250000
vt 0.625000 0.250000
vt 0.625000 0.500000
vt 0.375000 0.500000
vt 0.625000 0.750000
vt 0.375000 0.750000
vt 0.625000 0.750000
vt 0.625000 1.000000
vt 0.375000 1.000000
vt 0.625000 0.500000
vt 0.875000 0.500000
vt 0.875000 0.750000
vt 0.375000 0.250000
vt 0.625000 0.250000
vt 0.625000 0.500000
vt 0.375000 0.500000
vt 0.625000 0.750000
vt 0.375000 0.750000
vt 0.625000 0.750000
vt 0.625000 1.000000
vt 0.375000 1.000000
vt 0.625000 0.500000
vt 0.875000 0.500000
vt 0.875000 0.750000
vt 0.375000 0.250000
vt 0.625000 0.250000
vt 0.625000 0.500000
vt 0.375000 0.500000
vt 0.625000 0.750000
vt 0.375000 0.750000
vt 0.625000 0.750000
vt 0.625000 1.000000
vt 0.375000 1.000000
vt 0.625000 0.500000
vt 0.875000 0.500000
vt 0.875000 0.750000
vt 0.375000 0.250000
vt 0.625000 0.250000
vt 0.625000 0.500000
vt 0.375000 0.500000
vt 0.625000 0.750000
vt 0.375000 0.750000
vt 0.625000 0.750000
vt 0.625000 1.000000
vt 0.375000 1.000000
vt 0.625000 0.500000
vt 0.875000 0.500000
vt 0.875000 0.750000
vt 0.375000 0.250000
vt 0.625000 0.250000
vt 0.625000 0.500000
vt 0.375000 0.500000
vt 0.625000 0.750000
vt 0.375000 0.750000
vt 0.625000 0.750000
vt 0.625000 1.000000
vt 0.375000 1.000000
vt 0.625000 0.500000
vt 0.875000 0.500000
vt 0.875000 0.750000
vt 0.375000 0.250000
vt 0.625000 0.250000
vt 0.625000 0.500000
vt 0.375000 0.500000
vt 0.625000 0.750000
vt 0.375000 0.750000
vt 0.625000 0.750000
vt 0.625000 1.000000
vt 0.375000 1.000000
vt 0.625000 0.500000
vt 0.875000 0.500000
vt 0.875000 0.750000
vt 0.375000 0.250000
vt 0.625000 0.250000
vt 0.625000 0.500000
vt 0.375000 0.500000
vt 0.625000 0.750000
vt 0.375000 0.750000
vt 0.625000 0.750000
vt 0.625000 1.000000
vt 0.375000 1.000000
vt 0.625000 0.500000
vt 0.875000 0.500000
vt 0.875000 0.750000
vt 0.375000 0.250000
vt 0.625000 0.250000
vt 0.625000 0.500000
vt 0.375000 0.500000
vt 0.625000 0.750000
vt 0.375000 0.750000
vt 0.625000 0.750000
vt 0.625000 1.000000
vt 0.375000 1.000000
vt 0.625000 0.500000
vt 0.875000 0.500000
vt 0.875000 0.750000
vt 0.375000 0.250000
vt 0.625000 0.250000
vt 0.625000 0.500000
vt 0.375000 0.500000
vt 0.625000 0.750000
vt 0.375000 0.750000
vt 0.625000 0.750000
vt 0.625000 1.000000
vt 0.375000 1.000000
vt 0.625000 0.500000
vt 0.875000 0.500000
vt 0.875000 0.750000
vt 0.375000 0.250000
vt 0.625000 0.250000
vt 0.625000 0.500000
vt 0.375000 0.500000
vt 0.625000 0.750000
vt 0.375000 0.750000
vt 0.625000 0.750000
vt 0.625000 1.000000
vt 0.375000 1.000000
vt 0.625000 0.500000
vt 0.875000 0.500000
vt 0.875000 0.750000
vt 0.375000 0.250000
vt 0.625000 0.250000
vt 0.625000 0.500000
vt 0.375000 0.500000
vt 0.625000 0.750000
vt 0.375000 0.750000
vt 0.625000 0.750000
vt 0.625000 1.000000
vt 0.375000 1.000000
vt 0.625000 0.500000
vt 0.875000 0.500000
vt 0.875000 0.750000
vt 0.375000 0.250000
vt 0.625000 0.250000
vt 0.625000 0.500000
vt 0.375000 0.500000
vt 0.625000 0.750000
vt 0.375000 0.750000
vt 0.625000 0.750000
vt 0.625000 1.000000
vt 0.375000 1.000000
vt 0.625000 0.500000
vt 0.875000 0.500000
vt 0.875000 0.750000
vt 0.375000 0.250000
vt 0.625000 0.250000
vt 0.625000 0.500000
vt 0.375000 0.500000
vt 0.625000 0.750000
vt 0.375000 0.750000
vt 0.625000 0.750000
vt 0.625000 1.000000
vt 0.375000 1.000000
vt 0.625000 0.500000
vt 0.875000 0.500000
vt 0.875000 0.750000
vt 0.375000 0.250000
vt 0.625000 0.250000
vt 0.625000 0.500000
vt 0.375000 0.500000
vt 0.625000 0.750000
vt 0.375000 0.750000
vt 0.625000 0.750000
vt 0.625000 1.000000
vt 0.375000 1.000000
vt 0.625000 0.500000
vt 0.875000 0.500000
vt 0.875000 0.750000
vt 0.375000 0.250000
vt 0.625000 0.250000
vt 0.625000 0.500000
vt 0.375000 0.500000
vt 0.625000 0.750000
vt 0.375000 0.750000
vt 0.625000 0.750000
vt 0.625000 1.000000
vt 0.375000 1.000000
vt 0.625000 0.500000
vt 0.875000 0.500000
vt 0.875000 0.750000
vt 0.375000 0.250000
vt 0.625000 0.250000
vt 0.625000 0.500000
vt 0.375000 0.500000
vt 0.625000 0.750000
vt 0.375000 0.750000
vt 0.625000 0.750000
vt 0.625000 1.000000
vt 0.375000 1.000000
vt 0.625000 0.500000
vt 0.875000 0.500000
vt 0.875000 0.750000
vt 0.375000 0.250000
vt 0.625000 0.250000
vt 0.625000 0.500000
vt 0.375000 0.500000
vt 0.625000 0.750000
vt 0.375000 0.750000
vt 0.625000 0.750000
vt 0.625000 1.000000
vt 0.375000 1.000000
vt 0.625000 0.500000
vt 0.875000 0.500000
vt 0.875000 0.750000
vt 0.375000 0.250000
vt 0.625000 0.250000
vt 0.625000 0.500000
vt 0.375000 0.500000
vt 0.625000 0.750000
vt 0.375000 0.750000
vt 0.625000 0.750000
vt 0.625000 1.000000
vt 0.375000 1.000000
vt 0.625000 0.500000
vt 0.875000 0.500000
vt 0.875000 0.750000
vt 0.375000 0.250000
vt 0.625000 0.250000
vt 0.625000 0.500000
vt 0.375000 0.500000
vt 0.625000 0.750000
vt 0.375000 0.750000
vt 0.625000 0.750000
vt 0.625000 1.000000
vt 0.375000 1.000000
vt 0.625000 0.500000
vt 0.875000 0.500000
vt 0.875000 0.750000
vt 0.375000 0.250000
vt 0.625000 0.250000
vt 0.625000 0.500000
vt 0.375000 0.500000
vt 0.625000 0.750000
vt 0.375000 0.750000
vt 0.625000 0.750000
vt 0.625000 1.000000
vt 0.375000 1.000000
vt 0.625000 0.500000
vt 0.875000 0.500000
vt 0.875000 0.750000
vt 0.375000 0.250000
vt 0.625000 0.250000
vt 0.625000 0.500000
vt 0.375000 0.500000
vt 0.625000 0.750000
vt 0.375000 0.750000
vt 0.625000 0.750000
vt 0.625000 1.000000
vt 0.375000 1.000000
vt 0.625000 0.500000
vt 0.875000 0.500000
vt 0.875000 0.750000
vt 0.375000 0.250000
vt 0.625000 0.250000
vt 0.625000 0.500000
vt 0.375000 0.500000
vt 0.625000 0.750000
vt 0.375000 0.750000
vt 0.625000 0.750000
vt 0.625000 1.000000
vt 0.375000 1.000000
vt 0.625000 0.500000
vt 0.875000 0.500000
vt 0.875000 0.750000
vt 0.375000 0.250000
vt 0.625000 0.250000
vt 0.625000 0.500000
vt 0.375000 0.500000
vt 0.625000 0.750000
vt 0.375000 0.750000
vt 0.625000 0.750000
vt 0.625000 1.000000
vt 0.375000 1.000000
vt 0.625000 0.500000
vt 0.875000 0.500000
vt 0.875000 0.750000
vt 0.375000 0.250000
vt 0.625000 0.250000
vt 0.625000 0.500000
vt 0.375000 0.500000
vt 0.625000 0.750000
vt 0.375000 0.750000
vt 0.625000 0.750000
vt 0.625000 1.000000
vt 0.375000 1.000000
vt 0.625000 0.500000
vt 0.875000 0.500000
vt 0.875000 0.750000
vn 0.0000 0.0000 1.0000
vn -1.0000 0.0000 0.0000
vn 0.0000 -1.0000 0.0000
vn 0.0000 0.0000 -1.0000
usemtl Material
s off
f 4/1/1 3/2/1 7/3/1 8/4/1
f 8/4/2 7/3/2 5/5/2 6/6/2
f 6/6/3 2/7/3 4/8/3 8/9/3
f 6/10/4 5/11/4 1/12/4 2/7/4
f 12/13/1 11/14/1 15/15/1 16/16/1
f 16/16/2 15/15/2 13/17/2 14/18/2
f 14/18/3 10/19/3 12/20/3 16/21/3
f 14/22/4 13/23/4 9/24/4 10/19/4
f 20/25/1 19/26/1 23/27/1 24/28/1
f 24/28/2 23/27/2 21/29/2 22/30/2
f 22/30/3 18/31/3 20/32/3 24/33/3
f 22/34/4 21/35/4 17/36/4 18/31/4
f 28/37/1 27/38/1 31/39/1 32/40/1
f 32/40/2 31/39/2 29/41/2 30/42/2
f 30/42/3 26/43/3 28/44/3 32/45/3
f 30/46/4 29/47/4 25/48/4 26/43/4
f 36/49/1 35/50/1 39/51/1 40/52/1
f 40/52/2 39/51/2 37/53/2 38/54/2
f 38/54/3 34/55/3 36/56/3 40/57/3
f 38/58/4 37/59/4 33/60/4 34/55/4
f 44/61/1 43/62/1 47/63/1 48/64/1
f 48/64/2 47/63/2 45/65/2 46/66/2
f 46/66/3 42/67/3 44/68/3 48/69/3
f 46/70/4 45/71/4 41/72/4 42/67/4
f 52/73/1 51/74/1 55/75/1 56/76/1
f 56/76/2 55/75/2 53/77/2 54/78/2
f 54/78/3 50/79/3 52/80/3 56/81/3
f 54/82/4 53/83/4 49/84/4 50/79/4
f 60/85/1 59/86/1 63/87/1 64/88/1
f 64/88/2 63/87/2 61/89/2 62/90/2
f 62/90/3 58/91/3 60/92/3 64/93/3
f 62/94/4 61/95/4 57/96/4 58/91/4
f 68/97/1 67/98/1 71/99/1 72/100/1
f 72/100/2 71/99/2 69/101/2 70/102/2
f 70/102/3 66/103/3 68/104/3 72/105/3
f 70/106/4 69/107/4 65/108/4 66/103/4
f 76/109/1 75/110/1 79/111/1 80/112/1
f 80/112/2 79/111/2 77/113/2 78/114/2
f 78/114/3 74/115/3 76/116/3 80/117/3
f 78/118/4 77/119/4 73/120/4 74/115/4
f 84/121/1 83/122/1 87/123/1 88/124/1
f 88/124/2 87/123/2 85/125/2 86/126/2
f 86/126/3 82/127/3 84/128/3 88/129/3
f 86/130/4 85/131/4 81/132/4 82/127/4
f 92/133/1 91/134/1 95/135/1 96/136/1
f 96/136/2 95/135/2 93/137/2 94/138/2
f 94/138/3 90/139/3 92/140/3 96/141/3
f 94/142/4 93/143/4 89/144/4 90/139/4
f 100/145/1 99/146/1 103/147/1 104/148/1
f 104/148/2 103/147/2 101/149/2 102/150/2
f 102/150/3 98/151/3 100/152/3 104/153/3
f 102/154/4 101/155/4 97/156/4 98/151/4
f 108/157/1 107/158/1 111/159/1 112/160/1
f 112/160/2 111/159/2 109/161/2 110/162/2
f 110/162/3 106/163/3 108/164/3 112/165/3
f 110/166/4 109/167/4 105/168/4 106/163/4
f 116/169/1 115/170/1 119/171/1 120/172/1
f 120/172/2 119/171/2 117/173/2 118/174/2
f 118/174/3 114/175/3 116/176/3 120/177/3
f 118/178/4 117/179/4 113/180/4 114/175/4
f 124/181/1 123/182/1 127/183/1 128/184/1
f 128/184/2 127/183/2 125/185/2 126/186/2
f 126/186/3 122/187/3 124/188/3 128/189/3
f 126/190/4 125/191/4 121/192/4 122/187/4
f 132/193/1 131/194/1 135/195/1 136/196/1
f 136/196/2 135/195/2 133/197/2 134/198/2
f 134/198/3 130/199/3 132/200/3 136/201/3
f 134/202/4 133/203/4 129/204/4 130/199/4
f 140/205/1 139/206/1 143/207/1 144/208/1
f 144/208/2 143/207/2 141/209/2 142/210/2
f 142/210/3 138/211/3 140/212/3 144/213/3
f 142/214/4 141/215/4 137/216/4 138/211/4
f 148/217/1 147/218/1 151/219/1 152/220/1
f 152/220/2 151/219/2 149/221/2 150/222/2
f 150/222/3 146/223/3 148/224/3 152/225/3
f 150/226/4 149/227/4 145/228/4 146/223/4
f 156/229/1 155/230/1 159/231/1 160/232/1
f 160/232/2 159/231/2 157/233/2 158/234/2
f 158/234/3 154/235/3 156/236/3 160/237/3
f 158/238/4 157/239/4 153/240/4 154/235/4
f 164/241/1 163/242/1 167/243/1 168/244/1
f 168/244/2 167/243/2 165/245/2 166/246/2
f 166/246/3 162/247/3 164/248/3 168/249/3
f 166/250/4 165/251/4 161/252/4 162/247/4
f 172/253/1 171/254/1 175/255/1 176/256/1
f 176/256/2 175/255/2 173/257/2 174/258/2
f 174/258/3 170/259/3 172/260/3 176/261/3
f 174/262/4 173/263/4 169/264/4 170/259/4
f 180/265/1 179/266/1 183/267/1 184/268/1
f 184/268/2 183/267/2 181/269/2 182/270/2
f 182/270/3 178/271/3 180/272/3 184/273/3
f 182/274/4 181/275/4 177/276/4 178/271/4
f 188/277/1 187/278/1 191/279/1 192/280/1
f 192/280/2 191/279/2 189/281/2 190/282/2
f 190/282/3 186/283/3 188/284/3 192/285/3
f 190/286/4 189/287/4 185/288/4 186/283/4
f 196/289/1 195/290/1 199/291/1 200/292/1
f 200/292/2 199/291/2 197/293/2 198/294/2
f 198/294/3 194/295/3 196/296/3 200/297/3
f 198/298/4 197/299/4 193/300/4 194/295/4
f 204/301/1 203/302/1 207/303/1 208/304/1
f 208/304/2 207/303/2 205/305/2 206/306/2
f 206/306/3 202/307/3 204/308/3 208/309/3
f 206/310/4 205/311/4 201/312/4 202/307/4
f 212/313/1 211/314/1 215/315/1 216/316/1
f 216/316/2 215/315/2 213/317/2 214/318/2
f 214/318/3 210/319/3 212/320/3 216/321/3
f 214/322/4 213/323/4 209/324/4 210/319/4
f 220/325/1 219/326/1 223/327/1 224/328/1
f 224/328/2 223/327/2 221/329/2 222/330/2
f 222/330/3 218/331/3 220/332/3 224/333/3
f 222/334/4 221/335/4 217/336/4 218/331/4
f 228/337/1 227/338/1 231/339/1 232/340/1
f 232/340/2 231/339/2 229/341/2 230/342/2
f 230/342/3 226/343/3 228/344/3 232/345/3
f 230/346/4 229/347/4 225/348/4 226/343/4
f 236/349/1 235/350/1 239/351/1 240/352/1
f 240/352/2 239/351/2 237/353/2 238/354/2
f 238/354/3 234/355/3 236/356/3 240/357/3
f 238/358/4 237/359/4 233/360/4 234/355/4
