# Blender v2.80 (sub 47) OBJ File: ''
# www.blender.org
mtllib 8.mtl
o Icosphere
v 0.000000 -1.000000 0.000000
v 0.555837 -0.388056 0.396630
v -0.241407 -0.461409 0.686127
v -0.775735 -0.406330 0.012064
v -0.276388 -0.447220 -0.602319
v 0.465114 -0.346035 -0.306772
v 0.276388 0.447220 0.850649
v -0.723607 0.447220 0.525725
v -0.723607 0.447220 -0.525725
v 0.276388 0.447220 -0.850649
v 0.894426 0.447216 0.000000
v 0.000000 1.000000 0.000000
v -0.162456 -0.850654 0.499995
v 0.425323 -0.850654 0.309011
v -0.476928 -0.562101 -0.302401
v -0.711927 -0.515647 0.008715
v 0.425323 -0.850654 -0.309011
v -0.525730 -0.850652 0.000000
v -0.310381 -0.716806 -0.131061
v -0.162456 -0.850654 -0.499995
v 0.230603 0.565036 0.350411
v 0.951058 0.000000 0.309013
v 0.951058 0.000000 -0.309013
v 0.000000 0.000000 1.000000
v 0.587786 0.000000 0.809017
v -0.951058 0.000000 0.309013
v -0.587786 0.000000 0.809017
v -0.587786 0.000000 -0.809017
v -0.951058 0.000000 -0.309013
v 0.587786 0.000000 -0.809017
v 0.000000 0.000000 -1.000000
v 0.162456 0.850654 0.499995
v 0.525730 0.850652 0.000000
v -0.425323 0.850654 0.309011
v -0.425323 0.850654 -0.309011
v 0.162456 0.850654 -0.499995
v 0.640347 -0.533305 0.269694
v 0.501545 -0.525212 -0.262205
v 0.657880 -0.150344 0.070747
v 0.339566 -0.532465 -0.240899
v 0.124337 -0.130111 -0.113713
v -0.160034 -0.511981 -0.143647
v -0.112075 -0.388707 0.176435
v -0.221120 0.044316 0.310460
v 0.207749 -0.218770 0.329710
v -0.429335 -0.260583 0.188071
v -0.264042 0.102911 -0.094896
v -0.270642 0.277976 0.250558
v 0.000354 0.287630 -0.106875
v 0.258461 0.361929 0.124325
v 0.540530 0.439826 0.098529
v -0.052088 0.542938 -0.136177
v -0.275631 0.200458 -0.138884
v -0.291730 0.449988 -0.491943
v 0.480310 0.204287 0.569980
v 0.388346 0.176798 0.242400
v -0.004227 0.340325 0.312574
v -0.045525 -0.034963 0.507997
v 0.177559 -0.010607 0.239350
v -0.100044 -0.406474 -0.372934
v -0.225526 -0.506859 -0.473258
v -0.259205 -0.238063 -0.556252
v 0.323747 -0.435097 0.370823
v -0.040906 -0.902431 -0.013424
v 0.282768 -0.791656 0.121817
vt 0.818181 0.000000
vt 0.772726 0.078731
vt 0.863635 0.078731
vt 0.090909 0.000000
vt 0.045454 0.078731
vt 0.136363 0.078731
vt 0.272727 0.000000
vt 0.227273 0.078731
vt 0.318182 0.078731
vt 0.454545 0.000000
vt 0.409090 0.078731
vt 0.500000 0.078731
vt 0.727272 0.157461
vt 0.681818 0.236191
vt 0.772726 0.236191
vt 0.909090 0.157461
vt 0.863635 0.236191
vt 0.954545 0.236191
vt 0.181818 0.157461
vt 0.136363 0.236191
vt 0.227273 0.236191
vt 0.363636 0.157461
vt 0.318182 0.236191
vt 0.409090 0.236191
vt 0.545454 0.157461
vt 0.500000 0.236191
vt 0.590909 0.236191
vt 0.590909 0.393651
vt 0.500000 0.393651
vt 0.545454 0.472382
vt 0.409090 0.393651
vt 0.318182 0.393651
vt 0.363636 0.472382
vt 0.227273 0.393651
vt 0.136363 0.393651
vt 0.181818 0.472382
vt 0.954545 0.393651
vt 0.863635 0.393651
vt 0.909090 0.472382
vt 0.772726 0.393651
vt 0.681818 0.393651
vt 0.727272 0.472382
vt 0.454545 0.314921
vt 0.272727 0.314921
vt 0.000000 0.000000
vt 0.000000 0.000000
vt 0.000000 0.000000
vt 0.045454 0.236191
vt 0.090909 0.314921
vt 0.818181 0.314921
vt 0.636363 0.314921
vt 0.000000 0.000000
vt 0.000000 0.000000
vt 0.000000 0.000000
vt 0.681818 0.078731
vt 0.636363 0.000000
vt 0.590909 0.078731
vt 0.000000 0.000000
vt 0.000000 0.000000
vt 0.000000 0.000000
vt 0.000000 0.000000
vt 0.000000 0.000000
vt 0.000000 0.000000
vt 0.000000 0.000000
vt 0.000000 0.000000
vt 0.000000 0.000000
vt 0.000000 0.000000
vt 0.000000 0.000000
vt 0.000000 0.000000
vt 0.000000 0.000000
vt 0.000000 0.000000
vt 0.000000 0.000000
vt 0.000000 0.000000
vt 0.000000 0.000000
vt 0.000000 0.000000
vt 0.000000 0.000000
vt 0.000000 0.000000
vt 0.000000 0.000000
vt 0.000000 0.000000
vt 0.000000 0.000000
vt 0.000000 0.000000
vt 0.000000 0.000000
vt 0.000000 0.000000
vt 0.000000 0.000000
vn 0.1024 -0.9435 0.3151
vn -0.2680 -0.9435 0.1947
vn -0.2680 -0.9435 -0.1947
vn 0.1024 -0.9435 -0.3151
vn 0.6655 -0.5686 0.4835
vn -0.2780 -0.4366 0.8556
vn -0.9182 -0.3962 0.0000
vn -0.2585 -0.5478 -0.7957
vn 0.5335 -0.7517 -0.3876
vn 0.2680 0.9435 -0.1947
vn -0.1024 0.9435 -0.3151
vn -0.3313 0.9435 0.0000
vn -0.1024 0.9435 0.3151
vn 0.2680 0.9435 0.1947
vn 0.3066 0.1256 -0.9435
vn -0.8026 0.1256 -0.5831
vn -0.5028 -0.8254 -0.2566
vn -0.8026 0.1256 0.5831
vn 0.3066 0.1256 0.9435
vn 0.9921 0.1256 0.0000
vn 0.8607 0.4269 -0.2774
vn 0.3313 -0.9435 0.0000
vn 0.9522 -0.1741 -0.2511
vn -0.1786 0.2084 -0.9616
vn 0.2513 0.3434 -0.9050
vn 0.9401 -0.2965 0.1682
vn 0.2672 -0.9636 0.0114
vn -0.7727 0.5013 0.3895
vn 0.7340 0.2484 0.6321
vn 0.6828 -0.1361 -0.7178
vn 0.1523 0.5540 -0.8184
usemtl None
s off
f 1/1/1 14/2/1 13/3/1
f 1/4/2 13/5/2 18/6/2
f 1/7/3 18/8/3 20/9/3
f 1/10/4 20/11/4 17/12/4
f 2/13/5 22/14/5 25/15/5
f 3/16/6 24/17/6 27/18/6
f 4/19/7 26/20/7 29/21/7
f 5/22/8 28/23/8 31/24/8
f 6/25/9 30/26/9 23/27/9
f 33/28/10 36/29/10 12/30/10
f 36/31/11 35/32/11 12/33/11
f 35/34/12 34/35/12 12/36/12
f 34/37/13 32/38/13 12/39/13
f 32/40/14 33/41/14 12/42/14
f 30/26/15 31/24/15 10/43/15
f 28/23/16 29/21/16 9/44/16
f 16/45/17 15/46/17 19/47/17
f 26/20/18 27/48/18 8/49/18
f 24/17/19 25/15/19 7/50/19
f 22/14/20 23/27/20 11/51/20
f 55/52/21 56/53/21 21/54/21
f 14/55/22 1/56/22 17/57/22
f 38/58/23 39/59/23 37/60/23
f 41/61/24 40/62/24 42/63/24
f 44/64/25 45/65/25 43/66/25
f 47/67/26 48/68/26 46/69/26
f 50/70/27 49/71/27 51/72/27
f 53/73/28 52/74/28 54/75/28
f 58/76/29 59/77/29 57/78/29
f 61/79/30 62/80/30 60/81/30
f 64/82/31 63/83/31 65/84/31
l 14 2
l 17 6
l 32 7
l 34 8
l 35 9
l 36 10
l 3 13
l 4 18
l 5 20
l 11 33
l 42 19
l 50 21
l 2 37
l 38 40
l 42 43
l 43 46
l 47 49
l 49 52
l 49 57
l 40 60
l 19 63
