# Blender v2.80 (sub 47) OBJ File: ''
# www.blender.org
mtllib triangle02.mtl
o Plane
v -0.288470 1.345480 0.258754
v -1.000000 0.000000 -1.000000
v 1.000000 0.000000 -1.000000
v -1.000000 -0.000000 1.000000
v 0.453577 -0.410504 -0.653168
v 1.032763 -1.353368 0.370677
v 2.210356 -1.007163 0.106164
v 2.132709 -1.136659 1.040691
v 1.981702 0.716837 0.708789
v 0.597699 0.492626 1.049261
v 0.588935 0.833661 0.875072
v -1.019155 -1.145902 1.311228
v -0.956109 -1.275129 0.946654
v -1.193552 0.347911 -0.136145
v -0.093147 0.246153 -1.096691
vt 0.000000 0.000000
vt 0.000000 0.000000
vt 0.000000 0.000000
vt 0.000000 0.000000
vt 0.000000 0.000000
vt 0.000000 0.000000
vt 0.000000 0.000000
vt 0.000000 0.000000
vt 0.000000 0.000000
vt 0.000000 0.000000
vt 0.000000 0.000000
vt 0.000000 0.000000
vt 0.000000 0.000000
vt 0.000000 0.000000
vt 0.000000 0.000000
vt 0.000000 1.000000
vt 1.000000 1.000000
vn 0.2571 -0.9599 -0.1116
vn 0.9906 0.0979 0.0959
vn 0.1431 0.4531 0.8799
vn -0.3447 0.4199 0.8395
vn 0.7674 0.2999 -0.5667
vn 0.9866 0.0272 0.1610
vn -0.0625 0.9372 -0.3430
vn 0.0000 -0.6454 -0.7639
vn 0.8739 0.4862 0.0000
vn 0.0000 -0.3656 -0.9308
vn 0.0000 -0.6832 0.7302
vn 0.8840 -0.4675 -0.0000
vn 0.0000 1.0000 0.0000
vn 0.1751 0.9689 0.1751
vn 0.4912 0.7193 0.4912
vn 0.6687 -0.3251 0.6687
vn -0.0868 0.7079 0.7010
usemtl None
s off
f 7/1/1 8/2/1 6/3/1
f 8/2/2 7/1/2 9/4/2
f 10/5/3 9/4/3 11/6/3
f 1/7/4 10/5/4 11/6/4
f 7/1/5 3/8/5 9/4/5
f 12/9/6 13/10/6 4/11/6
f 6/3/7 13/10/7 12/9/7
f 5/12/8 2/13/8 3/8/8
f 2/13/9 14/14/9 4/11/9
f 2/13/10 15/15/10 3/8/10
s 1
f 1/7/11 2/16/11 3/17/11
f 2/16/12 1/7/12 4/11/12
f 2/16/13 4/11/14 3/17/15
f 4/11/14 5/12/16 3/17/15
f 5/12/17 6/3/17 3/17/17
