# Blender v2.80 (sub 47) OBJ File: 'charlySculpt1.blend'
# www.blender.org
mtllib cube2.mtl
o Cube
v 1.715158 -0.623208 1.616032
v 0.722334 1.000000 1.000000
v 1.099126 -1.616032 -0.007176
v 0.106301 0.007175 -0.623208
v 3.338366 -0.007175 0.623208
v 2.345541 1.616032 0.007176
v 2.722334 -1.000000 -1.000000
v 1.729509 0.623208 -1.616032
vt 0.375000 0.000000
vt 0.625000 0.000000
vt 0.625000 0.250000
vt 0.375000 0.250000
vt 0.625000 0.500000
vt 0.375000 0.500000
vt 0.625000 0.750000
vt 0.375000 0.750000
vt 0.625000 1.000000
vt 0.375000 1.000000
vt 0.125000 0.500000
vt 0.125000 0.750000
vt 0.875000 0.500000
vt 0.875000 0.750000
vn -0.8116 -0.3080 0.4964
vn -0.3080 -0.4964 -0.8116
vn 0.8116 0.3080 -0.4964
vn 0.3080 0.4964 0.8116
vn 0.4964 -0.8116 0.3080
vn -0.4964 0.8116 -0.3080
usemtl None
s off
f 1/1/1 2/2/1 4/3/1 3/4/1
f 3/4/2 4/3/2 8/5/2 7/6/2
f 7/6/3 8/5/3 6/7/3 5/8/3
f 5/8/4 6/7/4 2/9/4 1/10/4
f 3/11/5 7/6/5 5/8/5 1/12/5
f 8/5/6 4/13/6 2/14/6 6/7/6
